<svg id="svg" xmlns="http://www.w3.org/2000/svg" xmlns:xlink="http://www.w3.org/1999/xlink" width="400" height="400" viewBox="0, 0, 400,400"><g id="svgg"><path id="path0" d="M190.667 4.930 C 186.030 5.454,182.911 6.374,178.804 8.427 C 162.922 16.368,154.876 34.840,159.751 52.167 C 163.165 64.303,175.307 75.619,187.478 78.008 C 201.147 80.691,215.525 75.707,223.696 65.453 C 231.092 56.171,233.784 45.785,231.755 34.351 C 229.437 21.284,217.268 8.434,204.664 5.746 C 201.573 5.086,193.464 4.614,190.667 4.930 M174.167 88.165 C 154.783 88.375,154.324 88.449,147.495 92.495 C 122.005 107.594,110.269 152.032,113.336 221.833 C 113.938 235.527,114.259 237.288,116.737 240.454 C 121.711 246.811,130.746 247.221,136.717 241.360 C 139.917 238.219,139.919 238.199,140.076 203.250 C 140.207 174.104,140.345 171.224,142.175 159.333 C 143.950 147.801,145.973 139.972,149.475 131.086 L 150.459 128.589 150.560 141.836 C 150.615 149.122,150.778 205.858,150.921 267.917 L 151.181 380.750 152.381 383.000 C 158.847 395.118,172.120 398.785,182.984 391.455 C 185.833 389.532,187.579 387.317,189.918 382.656 L 191.471 379.561 191.653 305.739 C 191.753 265.137,191.835 230.623,191.834 229.042 L 191.833 226.167 195.500 226.167 L 199.167 226.167 199.167 302.332 L 199.167 378.497 200.088 380.951 C 205.120 394.357,219.474 399.260,231.126 391.554 C 234.107 389.583,235.982 387.221,238.379 382.417 L 239.792 379.583 239.896 311.750 C 239.954 274.442,240.047 231.904,240.104 217.221 L 240.208 190.525 236.312 188.614 C 221.634 181.412,211.682 170.232,208.261 157.101 C 207.919 155.784,207.830 155.659,205.602 153.350 C 198.562 146.053,198.041 137.351,204.200 129.945 C 205.723 128.113,206.114 126.984,207.093 121.583 C 208.823 112.034,211.266 103.476,215.235 93.053 C 216.991 88.442,216.997 88.419,216.458 88.264 C 215.853 88.090,187.300 88.023,174.167 88.165 M228.459 90.956 C 224.773 98.570,220.115 113.082,218.156 123.062 L 217.931 124.208 218.373 124.588 C 218.616 124.797,219.363 125.105,220.032 125.272 C 221.863 125.730,225.363 127.589,230.667 130.920 C 235.730 134.100,239.764 136.500,240.044 136.500 C 240.817 136.500,239.668 132.651,238.004 129.667 C 235.330 124.870,234.048 119.498,236.076 121.585 C 239.501 125.109,247.940 141.752,246.568 142.279 C 245.334 142.753,236.250 138.063,226.167 131.748 C 220.923 128.464,221.035 128.500,216.223 128.500 C 212.507 128.500,211.571 128.630,210.076 129.356 C 204.035 132.289,201.289 140.781,204.371 147.000 C 206.517 151.330,220.718 160.355,234.750 166.305 C 245.372 170.810,256.830 170.806,263.777 166.295 C 275.876 158.439,277.147 141.578,267.173 121.250 C 258.837 104.261,245.702 91.800,232.910 88.746 C 231.539 88.418,230.299 88.116,230.154 88.073 C 229.955 88.015,229.548 88.707,228.459 90.956 M275.701 155.625 C 275.418 156.244,275.033 157.163,274.846 157.668 C 273.139 162.278,267.902 167.595,262.301 170.407 C 258.668 172.230,258.755 172.216,250.292 172.296 L 243.167 172.364 243.167 175.925 L 243.167 179.486 245.792 180.317 C 252.525 182.448,262.105 184.249,268.083 184.506 C 273.851 184.754,284.282 184.607,284.617 184.272 C 284.860 184.029,277.738 157.716,276.684 154.958 C 276.424 154.279,276.269 154.384,275.701 155.625 M225.167 166.274 C 225.167 167.610,238.144 177.833,239.839 177.833 C 240.000 177.833,240.167 175.590,240.167 173.414 L 240.167 171.545 237.451 170.608 C 234.761 169.679,233.026 168.998,228.312 167.022 C 225.760 165.952,225.167 165.811,225.167 166.274 M243.275 193.792 C 243.218 195.052,243.121 205.102,243.060 216.125 L 242.949 236.167 244.766 236.166 C 249.849 236.164,262.143 232.888,267.704 230.054 C 278.810 224.393,287.167 210.626,287.167 197.991 L 287.167 195.833 279.858 195.833 C 264.833 195.833,257.216 195.033,247.293 192.413 C 245.392 191.911,243.734 191.500,243.608 191.500 C 243.431 191.500,243.357 192.015,243.275 193.792 " stroke="none" fill="#000000" fill-rule="evenodd"></path></g></svg>