<?xml version="1.0" standalone="no"?>
<!DOCTYPE svg PUBLIC "-//W3C//DTD SVG 20010904//EN"
 "http://www.w3.org/TR/2001/REC-SVG-20010904/DTD/svg10.dtd">
<svg version="1.0" xmlns="http://www.w3.org/2000/svg"
 width="2400.000000pt" height="240.000000pt" viewBox="0 0 240.000000 2400.000000"
 preserveAspectRatio="xMidYMid meet">
<metadata>
Created by potrace 1.15, written by Peter Selinger 2001-2017
</metadata>
<g transform="translate(0.000000,2400.000000) scale(0.100000,-0.100000)"
fill="#000000" stroke="none">
<path d="M11440 23704 c-154 -17 -229 -30 -319 -56 -501 -140 -964 -479 -1251
-914 -268 -407 -393 -888 -361 -1387 38 -576 225 -983 646 -1402 221 -221 390
-347 616 -459 144 -72 337 -139 478 -166 228 -45 637 -47 901 -5 362 58 836
304 1110 577 235 234 482 623 579 914 119 355 132 918 31 1293 -50 186 -159
418 -283 604 -244 365 -540 627 -912 808 -305 147 -500 188 -940 194 -143 2
-276 1 -295 -1z"/>
<path d="M10450 18710 c-1003 -11 -1162 -26 -1380 -135 -130 -65 -377 -218
-488 -302 -372 -281 -695 -703 -958 -1248 -668 -1388 -947 -3534 -824 -6335
30 -678 49 -843 115 -977 77 -155 202 -280 360 -358 114 -56 184 -74 315 -82
173 -10 343 36 477 129 67 46 205 179 233 223 86 140 96 359 105 2180 7 1749
16 1922 125 2635 107 692 228 1162 438 1695 l60 150 6 -795 c3 -437 13 -3841
21 -7565 l16 -6770 72 -135 c154 -289 331 -470 579 -596 292 -147 631 -174
930 -74 248 83 462 238 597 430 29 41 95 159 146 261 l93 185 11 4430 c6 2436
11 4507 11 4602 l0 172 220 0 220 0 0 -4570 0 -4570 55 -147 c87 -231 159
-348 300 -489 326 -323 825 -447 1240 -308 253 84 486 256 618 456 30 46 93
160 140 253 l85 170 6 4070 c3 2239 9 4791 12 5672 l6 1601 -233 115 c-129 63
-296 153 -371 200 -470 291 -818 651 -1067 1103 -88 161 -210 452 -245 588
-21 79 -26 86 -160 225 -67 69 -143 158 -168 197 -221 332 -223 767 -5 1089
22 33 62 86 89 118 91 110 115 178 174 502 103 573 250 1086 488 1712 53 138
96 258 96 266 0 8 -10 18 -22 21 -37 11 -1750 15 -2538 6z"/>
<path d="M13708 18543 c-198 -408 -386 -966 -546 -1618 -33 -132 -65 -271 -73
-309 l-13 -68 26 -23 c15 -13 60 -31 100 -41 110 -28 320 -139 638 -339 304
-191 546 -335 563 -335 6 0 8 26 4 74 -6 88 -44 187 -127 336 -65 116 -95 186
-134 304 -34 105 -49 192 -38 213 42 74 477 -653 645 -1077 57 -144 66 -187
41 -197 -74 -28 -619 253 -1224 632 -228 143 -260 160 -337 180 -70 18 -433
21 -515 4 -118 -25 -246 -109 -344 -226 -64 -78 -144 -236 -170 -338 -26 -99
-24 -282 5 -390 36 -136 73 -198 191 -315 214 -214 640 -480 1265 -790 665
-330 888 -393 1380 -392 354 0 563 52 782 194 325 212 540 569 594 992 17 135
6 472 -20 621 -62 354 -182 705 -371 1090 -239 488 -539 907 -902 1260 -387
378 -748 594 -1153 690 -83 20 -157 38 -166 41 -12 3 -36 -38 -101 -173z"/>
<path d="M16542 14663 c-17 -38 -40 -93 -51 -123 -72 -194 -281 -446 -516
-623 -111 -83 -356 -208 -457 -233 -63 -15 -134 -18 -500 -22 l-428 -4 0 -213
0 -214 158 -50 c275 -87 463 -130 892 -202 272 -45 461 -58 865 -58 251 0 562
12 572 23 12 12 -201 816 -382 1441 -92 319 -100 345 -113 345 -5 0 -23 -30
-40 -67z"/>
<path d="M13510 14024 c0 -37 352 -356 547 -496 73 -52 318 -198 333 -198 10
0 20 135 20 265 l0 112 -163 57 c-161 55 -265 96 -548 215 -153 64 -189 72
-189 45z"/>
<path d="M14597 12373 c-4 -76 -10 -679 -13 -1340 l-7 -1203 109 0 c174 0 434
51 803 156 433 123 674 238 902 430 83 70 274 261 334 334 91 112 184 259 264
420 165 333 241 631 241 951 l0 129 -439 0 c-901 0 -1358 48 -1953 205 -114
30 -214 55 -222 55 -10 0 -15 -31 -19 -137z"/>
</g>
</svg>
